<?xml version="1.0" ?>
<svg xmlns="http://www.w3.org/2000/svg" width="512" height="378" viewBox="-42.64 -1.69 591.58 437.18" role="img" aria-label="compact-analyzer mark">
  <title>compact-analyzer</title>
  <path d="M184.95000000000002 382.5Q148.05 382.5 116.32500000000002 370.125Q84.60000000000001 357.75 60.75 335.25Q36.9 312.75 23.625 282.375Q10.35 252.0 10.35 216.45000000000002Q10.35 180.45000000000002 23.625 150.3Q36.9 120.15000000000003 60.525000000000006 98.10000000000002Q84.15 76.05000000000001 115.65 63.67500000000001Q147.15 51.30000000000001 184.05 51.30000000000001Q221.4 51.30000000000001 252.45 63.0Q283.5 74.69999999999999 306.45 95.40000000000003L246.6 155.70000000000002Q235.8 144.00000000000003 220.275 137.25000000000003Q204.75 130.50000000000003 184.05 130.50000000000003Q166.05 130.50000000000003 150.97500000000002 136.35000000000002Q135.9 142.20000000000002 125.1 153.45000000000002Q114.3 164.70000000000002 108.225 180.675Q102.15 196.65 102.15 216.45000000000002Q102.15 236.70000000000002 108.225 252.675Q114.3 268.65000000000003 125.1 279.90000000000003Q135.9 291.15000000000003 150.97500000000002 297.225Q166.05 303.3 184.05 303.3Q204.3 303.3 220.275 297.0Q236.25 290.70000000000005 247.95000000000002 278.55L308.25 338.85Q284.40000000000003 359.55 254.70000000000002 371.025Q225.0 382.5 184.95000000000002 382.5Z" fill="currentColor"/>
  <path d="M429.95 166.3V160.70000000000002Q429.95 147.5 423.54999999999995 142.5Q417.15 137.5 401.55 137.5Q382.35 137.5 357.15 145.9L345.15 112.30000000000001Q361.15 106.30000000000001 377.95 103.30000000000001Q394.75 100.30000000000001 409.55 100.30000000000001Q446.35 100.30000000000001 463.35 114.50000000000001Q480.35 128.70000000000002 480.35 157.5V217.10000000000002Q480.35 225.9 482.95000000000005 230.10000000000002Q485.55 234.3 491.95000000000005 236.3L481.55 269.90000000000003Q465.95000000000005 268.70000000000005 455.95000000000005 263.5Q445.95000000000005 258.3 439.95 247.50000000000003Q431.55 259.5 418.15 265.1Q404.75 270.70000000000005 388.75 270.70000000000005Q363.55 270.70000000000005 348.35 256.70000000000005Q333.15 242.70000000000002 333.15 220.3Q333.15 194.3 353.75 180.3Q374.35 166.3 413.15 166.3ZM429.95 221.5V194.3H418.35Q385.95 194.3 385.95 216.70000000000002Q385.95 225.10000000000002 390.75 229.5Q395.55 233.9 404.75 233.9Q420.75 233.9 429.95 221.5ZM335.55 332.70000000000005H495.95000000000005V377.1H335.55Z" fill="currentColor"/>
</svg>
